<svg width="40" height="28" viewBox="0 0 40 28" fill="none" xmlns="http://www.w3.org/2000/svg">
<path d="M9.00001 28C6.50514 28 4.38142 27.1324 2.62885 25.3972C0.876283 23.6619 0 21.5411 0 19.0346C0 16.6654 0.815384 14.6115 2.44615 12.8731C4.07692 11.1346 5.99231 10.2 8.19231 10.0692C8.64103 7.15641 9.98077 4.75 12.2115 2.85C14.4423 0.95 17.0385 0 20 0C23.3429 0 26.1786 1.16429 28.5072 3.49286C30.8357 5.82143 32 8.65715 32 12V14H33.2308C35.1462 14.0615 36.7532 14.7647 38.0519 16.1096C39.3507 17.4545 40 19.0846 40 21C40 22.9616 39.3366 24.6186 38.0096 25.9712C36.6827 27.3237 35.0385 28 33.0769 28H22.2308C21.3103 28 20.5417 27.6917 19.925 27.075C19.3083 26.4584 19 25.6898 19 24.7693V13.1616L14.8 17.3385L13.3846 15.9616L20 9.34616L26.6154 15.9616L25.2 17.3385L21 13.1616V24.7693C21 25.0769 21.1282 25.359 21.3846 25.6154C21.641 25.8718 21.9231 26 22.2308 26H33C34.4 26 35.5833 25.5167 36.55 24.55C37.5167 23.5833 38 22.4 38 21C38 19.6 37.5167 18.4167 36.55 17.45C35.5833 16.4833 34.4 16 33 16H30V12C30 9.23335 29.025 6.87501 27.075 4.92501C25.125 2.97501 22.7667 2.00001 20 2.00001C17.2333 2.00001 14.875 2.97501 12.925 4.92501C10.975 6.87501 10 9.23335 10 12H8.92309C7.06668 12 5.44873 12.6833 4.06924 14.05C2.68976 15.4167 2.00001 17.0667 2.00001 19C2.00001 20.9333 2.68335 22.5833 4.05001 23.95C5.41668 25.3167 7.06668 26 9.00001 26H14V28H9.00001Z" fill="#415AAB"/>
</svg>
